<svg id="Insta" xmlns="http://www.w3.org/2000/svg" width="22.064" height="22.064" viewBox="0 0 22.064 22.064">
  <g id="Layer_2" data-name="Layer 2" transform="translate(0)">
    <path id="Path_153" data-name="Path 153" d="M18.386,0H3.678A3.678,3.678,0,0,0,0,3.678V18.386a3.678,3.678,0,0,0,3.678,3.678H18.386a3.678,3.678,0,0,0,3.678-3.678V3.678A3.678,3.678,0,0,0,18.386,0Zm1.839,18.386a1.836,1.836,0,0,1-1.839,1.839H3.678a1.836,1.836,0,0,1-1.839-1.839V3.678A1.836,1.836,0,0,1,3.678,1.839H18.386a1.836,1.836,0,0,1,1.839,1.839Z" transform="translate(0)" fill="#3cc2c2"/>
    <path id="Path_154" data-name="Path 154" d="M25.637,20.12a5.517,5.517,0,1,0,5.517,5.517A5.517,5.517,0,0,0,25.637,20.12Zm0,9.2a3.678,3.678,0,1,1,3.678-3.678A3.678,3.678,0,0,1,25.637,29.316Z" transform="translate(-14.605 -14.605)" fill="#3cc2c2"/>
    <circle id="Ellipse_10" data-name="Ellipse 10" cx="1.379" cy="1.379" r="1.379" transform="translate(15.628 3.678)" fill="#3cc2c2"/>
  </g>
</svg>
