<svg id="LinkedIN" xmlns="http://www.w3.org/2000/svg" width="21.967" height="22.064" viewBox="0 0 21.967 22.064">
  <g id="Layer_2" data-name="Layer 2" transform="translate(0 0)">
    <path id="Path_157" data-name="Path 157" d="M25.379,20.81c-.074-1.58-.535-2.367-1.624-2.7a1.169,1.169,0,0,0-.262,0,2.035,2.035,0,0,1-.946,0c-1.08,0-2.085,1.035-2.159,2.719.089,2.674,0,5.349.035,8.023a.317.317,0,0,1-.084.178l.03-.03a5.012,5.012,0,0,1-1.738.079,15.674,15.674,0,0,1-2.768-.064V14.422a5.77,5.77,0,0,1,1.867-.084,12.054,12.054,0,0,1,2.352.059l.124.139c.173.357.035.738.084,1.1,0,.134-.05.352.228.267A5.075,5.075,0,0,1,23.9,14.09a2.659,2.659,0,0,1,1.337-.059c.228.084.5-.069.7.114a5.349,5.349,0,0,1,2.476,1.278,5.651,5.651,0,0,1,1.337,3.1c.05.267.094.53.144.8a1.337,1.337,0,0,1,.025.812l-.03,8.88a24.41,24.41,0,0,1-4.5,0l.03.03c-.03-.04-.079-.074-.079-.109C25.339,26.2,25.289,23.509,25.379,20.81Z" transform="translate(-8.004 -7.053)" fill="#3cc2c2"/>
    <path id="Path_158" data-name="Path 158" d="M1,29.313v-14.6a21.146,21.146,0,0,1,3.313-.079,2.12,2.12,0,0,1,1.189.094v-.04H5.457c.168.144.1.342.1.5V28.808c0,.173.064.366-.089.5l.03-.03a4.076,4.076,0,0,1-1.6.079A18.324,18.324,0,0,1,1,29.313Z" transform="translate(-0.503 -7.365)" fill="#3cc2c2"/>
    <path id="Path_159" data-name="Path 159" d="M3.059.1A2.858,2.858,0,0,1,5.382,2.571a.213.213,0,0,1,0,.352A2.867,2.867,0,0,1,3.079,5.4a.609.609,0,0,1-.659,0A2.747,2.747,0,0,1,.083,3.22a1.337,1.337,0,0,1,0-.941l.555-1.2A.664.664,0,0,1,1.073.645L2.272.11A.822.822,0,0,1,3.059.1Z" transform="translate(0.003 -0.002)" fill="#3cc2c2"/>
  </g>
</svg>
