<svg id="Layer_2" data-name="Layer 2" xmlns="http://www.w3.org/2000/svg" width="26.276" height="22.064" viewBox="0 0 26.276 22.064">
  <g id="Layer_2-2" data-name="Layer 2" transform="translate(0 0)">
    <path id="Path_160" data-name="Path 160" d="M9.225,21.956A10.122,10.122,0,0,1,5.6,21.827a.41.41,0,0,1,.374-.082,1.134,1.134,0,0,0-.605.051A14.313,14.313,0,0,1-.009,19.909c-.056-.267.149-.21.282-.226a4.945,4.945,0,0,0,1.1-.051,11.286,11.286,0,0,0,6.218-2.35,5.823,5.823,0,0,1-5.13-3.832H4.275c.123.087.262.046.39.051a.172.172,0,0,0,.123-.031c-.072.036-.118,0-.154-.062,0-.39-.339-.282-.513-.369A5.471,5.471,0,0,1,.586,8.489c.123-.159,0-.446.262-.513a7.967,7.967,0,0,0,1.5.421c.149,0,.38.195.405-.149l-.287-.272a.9.9,0,0,0-.549-.554A5.058,5.058,0,0,1,.7,2.856Q.735,2.9.75,2.9c.092,0,.092,0,0-.292.082-.308.159-.616.257-.918.164-.513.472-.513.749-.123A10.553,10.553,0,0,0,4.675,4.18,15.78,15.78,0,0,0,10.41,6.55c.575.118,1.165.169,1.744.262.451.077.621,0,.539-.554A5.587,5.587,0,0,1,18.362,0,.587.587,0,0,1,18.8.117c-.267.139-.554,0-.934.087,0,0,.144.128.1.051s0-.041.051-.046a2.216,2.216,0,0,1,.862,0c.21-.262.462-.113.693-.062a4.443,4.443,0,0,1,2.206,1.159c.467.513.882.385,1.426.2.821-.277,1.606-.631,2.483-1.026a5.242,5.242,0,0,1-1.8,2.6c0,.077-.149.144-.051.205a.436.436,0,0,0,.513-.036,17.184,17.184,0,0,0,1.9-.477,8.276,8.276,0,0,1-2.462,2.652,1.662,1.662,0,0,0-.031,1.093,2.991,2.991,0,0,1-.1,1.277c-.1-.041-.056-.159-.113-.226.056.154-.036.328.087.457a14.939,14.939,0,0,1-2.1,6.336,11.8,11.8,0,0,1-1.878,2.565.41.41,0,0,0-.38.4A14.364,14.364,0,0,1,9.225,21.961c-.441-.2-.913,0-1.144-.062A3.376,3.376,0,0,1,9.225,21.956Z" transform="translate(0.019 0.003)" fill="#3cc2c2"/>
  </g>
</svg>
